# xmcd
#
# Track frame offsets:
#       150
#       13487
#       26195
#       36090
#       46292
#       57565
#       69087
#       81890
#       90155
#       101562
#       111602
#       124905
#       133737
#       143170
#       151742
#       166342
#       174422
#       185222
#
# Disc length: 2656 seconds
#
# Revision: 0
# Processed by: cddbd v1.4PL0 Copyright (c) Steve Scherf et al.
# Submitted via: CD-DA_X-Tractor v0.21
#
DISCID=fb0a5e12
DTITLE=Julie London - The Unforgettable Julie London
DYEAR=1900
DGENRE=
TTITLE0=Cry Me A River
TTITLE1=My Heart Belongs To Daddy
TTITLE2=Cuddle Up A Little Closer
TTITLE3=You'd Be So Nice To Come Home To
TTITLE4=I'm In The Mood For Love
TTITLE5=A Cottage For Sale
TTITLE6=Little White Lies
TTITLE7=Hot Toddy
TTITLE8=Blue Moon
TTITLE9=Daddy
TTITLE10=Invitation To The Blues
TTITLE11=Gee Baby, Ain't I Good To You
TTITLE12=Gone With The Wind
TTITLE13=No Moon At All
TTITLE14=Easy Street
TTITLE15=What Is This Thing Called Love
TTITLE16=The Nearness Of You
TTITLE17=They Can't Take That Away From Me
EXTD=
EXTT0=
EXTT1=
EXTT2=
EXTT3=
EXTT4=
EXTT5=
EXTT6=
EXTT7=
EXTT8=
EXTT9=
EXTT10=
EXTT11=
EXTT12=
EXTT13=
EXTT14=
EXTT15=
EXTT16=
EXTT17=
PLAYORDER=
